<?xml version="1.0" encoding="UTF-8"?>
<svg id="Capa_2" data-name="Capa 2" xmlns="http://www.w3.org/2000/svg" viewBox="0 0 41 42.79">
  <defs>
    <style>
      .cls-1 {
        fill: none;
      }

      .cls-2 {
        fill: #0d0d0d;
        stroke: #0d0d0d;
        stroke-miterlimit: 10;
      }
    </style>
  </defs>
  <g id="Capa_1-2" data-name="Capa 1">
    <g>
      <g>
        <g>
          <path class="cls-2" d="m26.72,34.57s-.06,0-.09,0c-.23-.05-.37-.27-.32-.5l1.34-6.22c.24-1.12.76-2.18,1.51-3.05l2.6-3.05c.82-.96,2.21-1.18,3.22-.51.94.63,1.32,1.85.9,2.91-.1.24-.23.46-.4.66l-3.42,4c-.15.18-.42.2-.59.05-.18-.15-.2-.42-.05-.59l3.42-4c.11-.13.2-.27.26-.43.28-.69.03-1.48-.58-1.89-.65-.43-1.57-.28-2.11.35l-2.6,3.05c-.65.77-1.11,1.69-1.33,2.68l-1.34,6.22c-.04.2-.22.33-.41.33Z"/>
          <path class="cls-2" d="m32.58,36.94c-.08,0-.15-.02-.22-.07-.2-.12-.26-.38-.13-.58l6.49-10.28c.77-1.22,1.09-2.69.88-4.12l-1.23-8.72c-.14-1-1.07-1.71-2.08-1.56-.48.07-.91.32-1.21.72-.3.39-.42.88-.35,1.36l1.28,9.08c.03.23-.13.44-.36.48-.23.03-.44-.13-.48-.36l-1.28-9.08c-.1-.71.08-1.41.51-1.99.43-.57,1.06-.95,1.77-1.05,1.47-.21,2.82.82,3.03,2.28l1.23,8.72c.23,1.63-.13,3.3-1.01,4.69l-6.49,10.28c-.08.13-.22.2-.36.2Z"/>
        </g>
        <path class="cls-2" d="m31.75,42.29c-.14,0-.29-.03-.43-.08l-7.63-3.08c-.29-.12-.51-.34-.63-.62-.12-.29-.12-.6,0-.89l.69-1.72c.12-.29.34-.51.62-.63.29-.12.6-.12.89,0l7.63,3.08c.59.24.88.92.64,1.51l-.69,1.72c-.18.45-.62.73-1.08.73Zm-6.94-6.28s-.09,0-.13.03c-.08.03-.14.09-.17.17h0l-.69,1.72c-.03.08-.03.16,0,.24.03.08.09.14.17.17l7.63,3.08c.16.07.35-.01.41-.18l.69-1.72c.03-.08.03-.16,0-.24-.03-.08-.09-.14-.17-.17l-7.63-3.08s-.08-.02-.12-.02Z"/>
      </g>
      <g>
        <g>
          <path class="cls-2" d="m14.28,34.57c-.19,0-.37-.14-.41-.33l-1.34-6.22c-.21-.99-.67-1.91-1.33-2.68l-2.6-3.05c-.54-.63-1.46-.78-2.11-.35-.61.41-.86,1.21-.58,1.89.06.16.15.3.26.43l3.42,4c.15.18.13.44-.05.59-.18.15-.44.13-.59-.05l-3.42-4c-.17-.2-.3-.42-.4-.66-.43-1.06-.05-2.28.9-2.91,1.01-.68,2.4-.46,3.22.51l2.6,3.05c.75.87,1.27,1.93,1.51,3.05l1.34,6.22c.05.23-.1.45-.32.5-.03,0-.06,0-.09,0Z"/>
          <path class="cls-2" d="m8.42,36.94c-.14,0-.28-.07-.36-.2L1.57,26.46c-.88-1.39-1.24-3.06-1.01-4.69l1.23-8.72c.21-1.46,1.56-2.49,3.03-2.28.71.1,1.33.47,1.77,1.05.43.57.61,1.28.51,1.99l-1.28,9.08c-.03.23-.25.39-.48.36-.23-.03-.39-.25-.36-.48l1.28-9.08c.07-.48-.06-.97-.35-1.36-.3-.39-.73-.65-1.21-.72-.48-.07-.97.06-1.36.35-.39.3-.65.73-.72,1.21l-1.23,8.72c-.2,1.43.11,2.9.88,4.12l6.49,10.28c.12.2.07.46-.13.58-.07.04-.15.07-.22.07Z"/>
        </g>
        <path class="cls-2" d="m9.25,42.29c-.46,0-.9-.27-1.08-.73l-.69-1.72c-.12-.29-.11-.6,0-.89.12-.29.35-.51.63-.62l7.63-3.08c.29-.12.6-.11.89,0,.29.12.51.35.62.63l.69,1.72c.24.59-.05,1.27-.64,1.51l-7.63,3.08c-.14.06-.29.08-.43.08Zm6.94-6.28s-.08,0-.12.02l-7.63,3.08c-.08.03-.14.09-.17.17-.03.08-.03.16,0,.24l.69,1.72c.07.16.25.24.41.18l7.63-3.08c.08-.03.14-.09.17-.17.03-.08.03-.16,0-.24l-.69-1.72h0c-.03-.08-.09-.14-.17-.17-.04-.02-.08-.03-.13-.03Z"/>
      </g>
      <g>
        <path class="cls-2" d="m6.75,9.26c-.07,0-.14-.02-.21-.06-.2-.12-.27-.37-.15-.58.35-.61.75-1.2,1.18-1.76C10.69,2.82,15.4.5,20.5.5s9.81,2.32,12.93,6.37c.42.54.82,1.14,1.18,1.76.12.2.05.46-.15.58-.2.12-.46.05-.58-.15-.34-.59-.72-1.15-1.12-1.67-2.96-3.84-7.43-6.04-12.26-6.04s-9.3,2.2-12.26,6.04c-.41.53-.79,1.09-1.12,1.67-.08.14-.22.21-.37.21Z"/>
        <path class="cls-2" d="m26.39,25.12c-.11,0-.22-.04-.3-.12-.11-.11-.14-.25-.11-.39,0-.02,0-.04.01-.05.57-2.35.87-5.02.87-7.73s-.3-5.43-.88-7.78l-.02-.1c-1.16-4.69-3.25-7.6-5.46-7.6s-4.29,2.91-5.46,7.6l-.02.1c-.58,2.35-.88,5.04-.88,7.78s.3,5.39.87,7.73c.05.15.01.31-.1.43-.16.16-.43.16-.6,0-.06-.06-.1-.13-.11-.2h0c-.59-2.4-.9-5.16-.9-7.95s.31-5.56.9-7.98l.02-.11C15.5,3.58,17.85.5,20.5.5s5,3.08,6.28,8.24l.03.11c.59,2.41.9,5.17.9,7.97s-.31,5.53-.9,7.95c0,.02,0,.03-.02.05-.02.06-.06.12-.1.17-.08.08-.19.12-.3.12Z"/>
        <path class="cls-2" d="m31.68,17.24H9.32c-.23,0-.42-.19-.42-.42s.19-.42.42-.42h22.37c.23,0,.42.19.42.42s-.19.42-.42.42Z"/>
        <path class="cls-2" d="m20.5,9.81c-4.68,0-9.09-.8-12.75-2.3-.22-.09-.32-.33-.23-.55.09-.22.33-.32.55-.23,3.57,1.46,7.87,2.24,12.43,2.24s8.87-.77,12.44-2.24c.22-.09.46.01.55.23.09.22-.01.46-.23.55-3.67,1.51-8.08,2.3-12.76,2.3Z"/>
        <path class="cls-2" d="m14.61,25.12c-.2,0-.38-.15-.42-.35-.04-.23.12-.45.35-.48.09-.01.18-.03.27-.04,3.66-.55,7.7-.55,11.38,0,.08,0,.17.02.26.04.23.04.39.25.35.48-.04.23-.25.39-.48.35-.08-.01-.16-.03-.24-.04-3.62-.54-7.54-.54-11.15,0-.09.01-.17.02-.25.04-.02,0-.05,0-.07,0Z"/>
      </g>
    </g>
    <rect class="cls-1" x=".5" y=".39" width="40" height="42"/>
  </g>
</svg>