<?xml version="1.0" encoding="UTF-8"?>
<svg id="Capa_2" data-name="Capa 2" xmlns="http://www.w3.org/2000/svg" viewBox="0 0 40 42">
  <defs>
    <style>
      .cls-1 {
        fill: none;
      }

      .cls-2 {
        fill: #0d0d0d;
        stroke: #0d0d0d;
        stroke-miterlimit: 10;
      }
    </style>
  </defs>
  <g id="Capa_1-2" data-name="Capa 1">
    <g>
      <g>
        <path class="cls-2" d="m10.42,31.03h-6.39c-.23,0-.42-.19-.42-.42v-13.47c0-.23.19-.42.42-.42h6.39c.23,0,.42.19.42.42v13.47c0,.23-.19.42-.42.42Zm-5.97-.84h5.55v-12.63h-5.55v12.63Z"/>
        <path class="cls-2" d="m10.42,31.03c-.23,0-.42-.19-.42-.42V10.4c0-.23.19-.42.42-.42h6.39c.23,0,.42.19.42.42v10.57c0,.23-.19.42-.42.42s-.42-.19-.42-.42v-10.15h-5.55v19.78c0,.23-.19.42-.42.42Z"/>
        <path class="cls-2" d="m23.19,25.49c-.23,0-.42-.19-.42-.42V3.57h-5.55v17.4c0,.23-.19.42-.42.42s-.42-.19-.42-.42V3.15c0-.23.19-.42.42-.42h6.39c.23,0,.42.19.42.42v21.92c0,.23-.19.42-.42.42Z"/>
        <path class="cls-2" d="m29.58,31.03c-.23,0-.42-.19-.42-.42V13.85h-5.55v11.22c0,.23-.19.42-.42.42s-.42-.19-.42-.42v-11.65c0-.23.19-.42.42-.42h6.39c.23,0,.42.19.42.42v17.18c0,.23-.19.42-.42.42Z"/>
        <path class="cls-2" d="m35.97,31.03h-6.39c-.23,0-.42-.19-.42-.42V10.06c0-.23.19-.42.42-.42h6.39c.23,0,.42.19.42.42v20.55c0,.23-.19.42-.42.42Zm-5.97-.84h5.55V10.48h-5.55v19.71Z"/>
      </g>
      <g>
        <path class="cls-2" d="m15.66,37.62c-.11,0-.22-.04-.3-.12-.16-.16-.16-.43,0-.6l11.32-11.32c.16-.16.43-.16.6,0,.16.16.16.43,0,.6l-11.32,11.32c-.08.08-.19.12-.3.12Z"/>
        <path class="cls-2" d="m16.89,30.42c-1.83,0-3.31-1.49-3.31-3.31s1.49-3.31,3.31-3.31,3.31,1.49,3.31,3.31-1.49,3.31-3.31,3.31Zm0-5.78c-1.36,0-2.47,1.11-2.47,2.47s1.11,2.47,2.47,2.47,2.47-1.11,2.47-2.47-1.11-2.47-2.47-2.47Z"/>
        <path class="cls-2" d="m25.75,39.27c-1.83,0-3.31-1.49-3.31-3.31s1.49-3.31,3.31-3.31,3.31,1.49,3.31,3.31-1.49,3.31-3.31,3.31Zm0-5.78c-1.36,0-2.47,1.11-2.47,2.47s1.11,2.47,2.47,2.47,2.47-1.11,2.47-2.47-1.11-2.47-2.47-2.47Z"/>
      </g>
    </g>
    <rect class="cls-1" width="40" height="42"/>
  </g>
</svg>