<svg width="24" height="24" viewBox="0 0 24 24" fill="none" xmlns="http://www.w3.org/2000/svg">
<g clip-path="url(#clip0_1286_2310)">
<path d="M22.0992 15.3333L19.4925 12L22.0481 8.73333C22.1878 8.55463 22.2759 8.33805 22.3019 8.10898C22.3279 7.87991 22.2909 7.64785 22.195 7.44C22.0979 7.20702 21.9369 7.00926 21.7322 6.87164C21.5276 6.73402 21.2884 6.66269 21.045 6.66666H1.23944C1.07919 6.66402 0.920006 6.69434 0.770983 6.75589C0.62196 6.81745 0.486018 6.90904 0.370921 7.02543C0.255824 7.14181 0.163826 7.28072 0.100183 7.43421C0.0365397 7.5877 0.00249732 7.75277 0 7.92L0 16.0867C0.00671519 16.4232 0.140876 16.7433 0.373143 16.9769C0.60541 17.2105 0.916882 17.3387 1.23944 17.3333H21.1153C21.3506 17.3374 21.5821 17.2712 21.7825 17.1424C21.9828 17.0137 22.1437 16.8278 22.2461 16.6067C22.3381 16.4013 22.373 16.1731 22.347 15.9481C22.3211 15.723 22.2352 15.5101 22.0992 15.3333ZM1.27778 16V8H20.9428L17.8506 11.9533L20.9875 16H1.27778Z" fill="#800000"/>
<path d="M5.99918 12.9L3.9164 10H3.19446V14.12H3.9164V11.2267L5.99918 14.12H6.71474V10H5.99918V12.9Z" fill="#800000"/>
<path d="M7.78168 14.12H10.7589V13.44H8.50362V12.3667H10.5417V11.68H8.50362V10.6867H10.7589V10H7.78168V14.12Z" fill="#800000"/>
<path d="M15.6656 12.9533L14.7328 10H13.9533L13.0142 12.9533L12.1708 10H11.385L12.6372 14.12H13.3464L14.3431 11.06L15.3333 14.12H16.0553L17.3011 10H16.5153L15.6656 12.9533Z" fill="#800000"/>
</g>
<defs>
<clipPath id="clip0_1286_2310">
<rect width="23" height="24" fill="white"/>
</clipPath>
</defs>
</svg>
