<svg width="20" height="18" viewBox="0 0 20 18" fill="none" xmlns="http://www.w3.org/2000/svg">
<path d="M17.0761 2.7466C16.6504 2.32077 16.1451 1.98297 15.5889 1.7525C15.0327 1.52203 14.4365 1.40341 13.8344 1.40341C13.2323 1.40341 12.6362 1.52203 12.0799 1.7525C11.5237 1.98297 11.0184 2.32077 10.5927 2.7466L9.70941 3.62993L8.82608 2.7466C7.96633 1.88686 6.80027 1.40386 5.58441 1.40386C4.36855 1.40386 3.20249 1.88686 2.34274 2.7466C1.483 3.60634 1 4.77241 1 5.98827C1 7.20413 1.483 8.37019 2.34274 9.22993L3.22608 10.1133L9.70941 16.5966L16.1927 10.1133L17.0761 9.22993C17.5019 8.8043 17.8397 8.29895 18.0702 7.74273C18.3006 7.18651 18.4193 6.59034 18.4193 5.98827C18.4193 5.38619 18.3006 4.79002 18.0702 4.2338C17.8397 3.67759 17.5019 3.17223 17.0761 2.7466V2.7466Z" stroke="#800000" stroke-width="1.5" stroke-linecap="round" stroke-linejoin="round"/>
</svg>
