<svg width="20" height="20" viewBox="0 0 20 20" fill="none" xmlns="http://www.w3.org/2000/svg">
<path d="M13.3334 13.3333L10 10L6.66669 13.3333" stroke="#800000" stroke-width="1.5" stroke-linecap="round" stroke-linejoin="round"/>
<path d="M10 10V17.5" stroke="#800000" stroke-width="1.5" stroke-linecap="round" stroke-linejoin="round"/>
<path d="M16.9917 15.325C17.8045 14.8819 18.4466 14.1807 18.8166 13.3322C19.1866 12.4836 19.2635 11.536 19.0352 10.6389C18.8069 9.74179 18.2863 8.94626 17.5556 8.37787C16.8249 7.80948 15.9257 7.50061 15 7.5H13.95C13.6978 6.52436 13.2277 5.61861 12.575 4.85082C11.9223 4.08304 11.1041 3.47321 10.1818 3.06717C9.25949 2.66113 8.25715 2.46946 7.25013 2.50657C6.2431 2.54367 5.25758 2.80858 4.36768 3.28138C3.47777 3.75419 2.70662 4.42258 2.11221 5.23631C1.5178 6.05005 1.1156 6.98794 0.935844 7.97949C0.756086 8.97104 0.803449 9.99044 1.07437 10.961C1.3453 11.9317 1.83273 12.8282 2.50003 13.5833" stroke="#800000" stroke-width="1.5" stroke-linecap="round" stroke-linejoin="round"/>
<path d="M13.3334 13.3333L10 10L6.66669 13.3333" stroke="#800000" stroke-width="1.5" stroke-linecap="round" stroke-linejoin="round"/>
</svg>
