<?xml version="1.0" encoding="UTF-8"?>
<svg id="Capa_2" data-name="Capa 2" xmlns="http://www.w3.org/2000/svg" viewBox="0 0 40 42">
  <defs>
    <style>
      .cls-1 {
        fill: none;
      }

      .cls-2 {
        fill: #0d0d0d;
        stroke: #0d0d0d;
        stroke-miterlimit: 10;
      }
    </style>
  </defs>
  <g id="Capa_1-2" data-name="Capa 1">
    <g>
      <g>
        <path class="cls-2" d="m24.87,32.49s-.02,0-.03,0c-.23-.02-.41-.22-.39-.45l.24-3.15c.07-.93.55-1.81,1.31-2.42,2.33-1.85,3.66-4.61,3.66-7.58,0-2.7-1.08-5.2-3.05-7.05-1.97-1.85-4.54-2.77-7.25-2.6-4.92.31-8.89,4.42-9.04,9.36-.09,3.08,1.24,5.94,3.65,7.86.77.61,1.25,1.51,1.33,2.47l.21,2.72h4.48c.23,0,.42.19.42.42s-.19.42-.42.42h-4.87c-.22,0-.4-.17-.42-.39l-.24-3.11c-.05-.72-.42-1.4-1.01-1.87-2.62-2.08-4.06-5.2-3.97-8.54.16-5.37,4.47-9.84,9.83-10.17,2.94-.18,5.74.82,7.88,2.82,2.11,1.98,3.32,4.77,3.32,7.67,0,3.23-1.45,6.23-3.98,8.24-.58.46-.94,1.12-1,1.82l-.24,3.15c-.02.22-.2.39-.42.39Z"/>
        <path class="cls-2" d="m24.04,38.14h-8.09c-.23,0-.42-.19-.42-.42s.19-.42.42-.42h8.09c.23,0,.42.19.42.42s-.19.42-.42.42Z"/>
        <path class="cls-2" d="m24.57,35.31h-9.13c-.23,0-.42-.19-.42-.42s.19-.42.42-.42h9.13c.23,0,.42.19.42.42s-.19.42-.42.42Z"/>
        <path class="cls-2" d="m21.75,40.95h-3.49c-.23,0-.42-.19-.42-.42s.19-.42.42-.42h3.49c.23,0,.42.19.42.42s-.19.42-.42.42Z"/>
      </g>
      <g>
        <path class="cls-2" d="m20,5.83c-.23,0-.42-.19-.42-.42V1.47c0-.23.19-.42.42-.42s.42.19.42.42v3.94c0,.23-.19.42-.42.42Z"/>
        <path class="cls-2" d="m28.5,9.02c-.11,0-.21-.04-.3-.12-.17-.16-.17-.43,0-.6l2.6-2.64c.16-.17.43-.17.6,0,.17.16.17.43,0,.6l-2.6,2.64c-.08.08-.19.13-.3.13Z"/>
        <path class="cls-2" d="m11.5,9.02c-.11,0-.22-.04-.3-.13l-2.6-2.64c-.16-.17-.16-.43,0-.6.17-.16.43-.16.6,0l2.6,2.64c.16.17.16.43,0,.6-.08.08-.19.12-.3.12Z"/>
        <path class="cls-2" d="m36.74,16.72h-3.82c-.23,0-.42-.19-.42-.42s.19-.42.42-.42h3.82c.23,0,.42.19.42.42s-.19.42-.42.42Z"/>
        <path class="cls-2" d="m7.07,16.72h-3.82c-.23,0-.42-.19-.42-.42s.19-.42.42-.42h3.82c.23,0,.42.19.42.42s-.19.42-.42.42Z"/>
      </g>
      <path class="cls-2" d="m20,32.31c-.23,0-.42-.19-.42-.42v-6.96c0-.23.19-.42.42-.42s.42.19.42.42v6.96c0,.23-.19.42-.42.42Z"/>
      <path class="cls-2" d="m20,25.35c-.12,0-.24-.05-.32-.15l-2-2.35c-.15-.18-.13-.44.05-.59.18-.15.44-.13.59.05l2,2.35c.15.18.13.44-.05.59-.08.07-.18.1-.27.1Z"/>
      <path class="cls-2" d="m20,25.35c-.1,0-.19-.03-.27-.1-.18-.15-.2-.42-.05-.59l2-2.35c.15-.18.42-.2.59-.05.18.15.2.42.05.59l-2,2.35c-.08.1-.2.15-.32.15Z"/>
    </g>
    <rect class="cls-1" width="40" height="42"/>
  </g>
</svg>