<?xml version="1.0" encoding="UTF-8"?>
<svg id="Capa_2" data-name="Capa 2" xmlns="http://www.w3.org/2000/svg" viewBox="0 0 40 42">
  <defs>
    <style>
      .cls-1 {
        fill: none;
      }

      .cls-2 {
        fill: #0d0d0d;
        stroke: #0d0d0d;
        stroke-miterlimit: 10;
      }
    </style>
  </defs>
  <g id="Capa_1-2" data-name="Capa 1">
    <g>
      <g>
        <g>
          <path class="cls-2" d="m12.17,12c-2.31,0-4.19-1.91-4.19-4.26s1.88-4.26,4.19-4.26,4.19,1.91,4.19,4.26-1.88,4.26-4.19,4.26Zm0-7.67c-1.84,0-3.34,1.53-3.34,3.41s1.5,3.41,3.34,3.41,3.34-1.53,3.34-3.41-1.5-3.41-3.34-3.41Z"/>
          <path class="cls-2" d="m13.36,38.51h-3.63c-.59,0-2.53-.27-2.53-3.7v-6.43h-.52c-1.07,0-1.95-.95-1.95-2.12v-8.17c0-2.38,1.64-4.18,3.82-4.18h5.48c.23,0,.42.19.42.42s-.19.42-.42.42h-5.48c-1.7,0-2.98,1.43-2.98,3.34v8.17c0,.7.5,1.27,1.11,1.27h.94c.23,0,.42.19.42.42v6.85c0,1.81.61,2.85,1.68,2.85h3.63c1.07,0,1.68-1.04,1.68-2.85v-.4c0-.23.19-.42.42-.42s.42.19.42.42v.4c0,3.43-1.93,3.7-2.52,3.7Z"/>
        </g>
        <g>
          <path class="cls-2" d="m29.09,12c-2.31,0-4.19-1.91-4.19-4.26s1.88-4.26,4.19-4.26,4.19,1.91,4.19,4.26-1.88,4.26-4.19,4.26Zm0-7.67c-1.84,0-3.34,1.53-3.34,3.41s1.5,3.41,3.34,3.41,3.34-1.53,3.34-3.41-1.5-3.41-3.34-3.41Z"/>
          <path class="cls-2" d="m30.28,38.51h-3.63c-.59,0-2.53-.27-2.53-3.7v-3.85c0-.23.19-.42.42-.42s.42.19.42.42v3.85c0,1.81.61,2.85,1.68,2.85h3.63c1.07,0,1.68-1.04,1.68-2.85v-6.85c0-.23.19-.42.42-.42h.95c.61,0,1.11-.57,1.11-1.27v-8.17c0-1.9-1.28-3.34-2.97-3.34h-4.23c-.23,0-.42-.19-.42-.42s.19-.42.42-.42h4.23c2.18,0,3.82,1.8,3.82,4.18v8.17c0,1.17-.87,2.12-1.95,2.12h-.52v6.43c0,3.43-1.93,3.7-2.52,3.7Z"/>
        </g>
      </g>
      <path class="cls-2" d="m15.71,30.57c-.11,0-.22-.04-.3-.13l-4.95-5.04c-.16-.16-.16-.43,0-.59l4.95-5.04c.12-.12.3-.16.46-.1.16.06.26.22.26.39v1.92h7.02c.23,0,.42.19.42.42v1.31l3.94-4.01-3.94-4.01v1.31c0,.23-.19.42-.42.42h-7.44c-.23,0-.42-.19-.42-.42s.19-.42.42-.42h7.02v-1.92c0-.17.1-.33.26-.39.16-.06.34-.03.46.09l4.95,5.04c.16.16.16.43,0,.59l-4.95,5.04c-.12.12-.3.16-.46.09-.16-.06-.26-.22-.26-.39v-1.92h-7.02c-.23,0-.42-.19-.42-.42v-1.31l-3.94,4.01,3.94,4.01v-1.31c0-.23.19-.42.42-.42h7.44c.23,0,.42.19.42.42s-.19.42-.42.42h-7.02v1.92c0,.17-.1.33-.26.39-.05.02-.11.03-.16.03Z"/>
    </g>
    <rect class="cls-1" width="40" height="42"/>
  </g>
</svg>