<?xml version="1.0" encoding="UTF-8"?>
<svg id="Capa_2" data-name="Capa 2" xmlns="http://www.w3.org/2000/svg" viewBox="0 0 40 42">
  <defs>
    <style>
      .cls-1 {
        fill: none;
      }

      .cls-2 {
        fill: #0d0d0d;
        stroke: #0d0d0d;
        stroke-miterlimit: 10;
      }
    </style>
  </defs>
  <g id="Capa_1-2" data-name="Capa 1">
    <g>
      <g>
        <path class="cls-2" d="m12.3,37.04h-6.95c-.23,0-.42-.19-.42-.42v-7.5c0-.19.13-.36.32-.41l.16-.04c2.24-.4,4.47-.93,6.66-1.59,0,0,.02,0,.03,0l.1-.02c.12-.03.26,0,.36.08.1.08.16.2.16.33v9.16c0,.23-.19.42-.42.42Zm-6.53-.84h6.1v-8.18c-2.02.59-4.07,1.08-6.1,1.44v6.74Z"/>
        <path class="cls-2" d="m23.47,37.04h-6.95c-.23,0-.42-.19-.42-.42v-10.63c0-.19.12-.34.28-.4,2.41-.95,4.71-2.06,6.85-3.29.02,0,.03-.02.05-.03.01,0,.03-.01.04-.02.1-.03.2-.03.3,0,.16.07.26.22.26.39v13.97c0,.23-.19.42-.42.42Zm-6.53-.84h6.11v-12.82c-1.93,1.08-3.98,2.05-6.11,2.9v9.92Z"/>
        <path class="cls-2" d="m34.65,37.04h-6.95c-.23,0-.42-.19-.42-.42v-16.71c0-.13.06-.24.15-.32.01-.01.03-.02.04-.03,0,0,0,0,.01,0l.22-.16c2.43-1.79,4.66-3.85,6.63-6.12.12-.13.3-.18.47-.12.17.06.27.22.27.4v23.08c0,.23-.19.42-.42.42Zm-6.53-.84h6.11V14.65c-1.82,1.99-3.85,3.81-6.03,5.42l-.08.06v16.07Z"/>
      </g>
      <g>
        <path class="cls-2" d="m5.35,21.37c-.2,0-.38-.14-.41-.35-.04-.23.11-.45.34-.49,2.32-.41,4.64-.96,6.9-1.65l.17.39-.13-.4s.05-.01.07-.02c5.72-1.74,10.91-4.31,15.41-7.63,2.44-1.8,4.67-3.86,6.63-6.12.15-.18.42-.2.59-.04.18.15.2.42.04.59-2,2.31-4.28,4.42-6.77,6.25-4.57,3.37-9.85,5.99-15.69,7.76l-.17-.39.13.4s-.05.01-.07.02c-2.27.69-4.62,1.25-6.97,1.66-.02,0-.05,0-.07,0Z"/>
        <path class="cls-2" d="m34.65,10.52c-.23,0-.42-.19-.42-.42v-4.72c0-.23.19-.42.42-.42s.42.19.42.42v4.72c0,.23-.19.42-.42.42Z"/>
        <path class="cls-2" d="m34.65,5.8h-4.99c-.23,0-.42-.19-.42-.42s.19-.42.42-.42h4.99c.23,0,.42.19.42.42s-.19.42-.42.42Z"/>
      </g>
    </g>
    <rect class="cls-1" width="40" height="42"/>
  </g>
</svg>