<?xml version="1.0" encoding="UTF-8"?>
<svg id="Capa_2" data-name="Capa 2" xmlns="http://www.w3.org/2000/svg" viewBox="0 0 40 42">
  <defs>
    <style>
      .cls-1 {
        fill: none;
      }

      .cls-2 {
        fill: #0d0d0d;
        stroke: #0d0d0d;
        stroke-miterlimit: 10;
      }
    </style>
  </defs>
  <g id="Capa_1-2" data-name="Capa 1">
    <g>
      <path class="cls-2" d="m20,39.89C9.52,39.89,1,31.36,1,20.88c0-1.3.13-2.57.38-3.78.02-.11.09-.21.19-.28.07-.05.15-.07.24-.07.03,0,.06,0,.09,0l9.94,2.12c.23.05.38.27.34.51-.09.5-.14,1-.14,1.5,0,4.39,3.57,7.96,7.95,7.96,1.02,0,2-.19,2.91-.55.05-.02.11-.03.16-.03.06,0,.12.01.18.04.11.05.19.14.23.25l3.48,9.56c.08.22-.03.47-.26.56-2.13.81-4.38,1.22-6.7,1.22ZM2.09,18.1c-.14.9-.21,1.84-.21,2.78,0,10,8.13,18.13,18.12,18.13,1.93,0,3.82-.3,5.62-.89l.37-.12-3.18-8.74-.34.1c-.79.23-1.63.35-2.47.35-4.87,0-8.83-3.96-8.83-8.83,0-.3.02-.6.05-.9l.03-.34-9.1-1.94-.06.4Z"/>
      <path class="cls-2" d="m13.12,16.52c-.08,0-.17-.02-.24-.07l-8.56-5.52c-.1-.06-.17-.16-.19-.28-.02-.11,0-.23.06-.33,2.93-4.38,7.58-7.37,12.76-8.2.02,0,.04,0,.07,0,.09,0,.19.03.26.08.09.07.16.17.17.29l1.5,10.07c.02.13-.02.25-.1.35-.07.08-.17.14-.28.15-2.07.38-3.93,1.57-5.11,3.28-.08.12-.22.19-.36.19Zm3.15-13.39c-4.35.92-8.21,3.4-10.86,6.98l-.24.33,7.83,5.05.21-.26c1.16-1.39,2.75-2.41,4.5-2.88l.33-.09-1.38-9.22-.39.08Z"/>
      <path class="cls-2" d="m35.71,31.2c-.08,0-.16-.02-.23-.07l-8.64-5.38c-.1-.06-.17-.16-.2-.27-.03-.11,0-.23.06-.33.81-1.27,1.25-2.75,1.25-4.26,0-3.64-2.46-6.82-5.99-7.71-.23-.06-.37-.3-.32-.53l2.46-9.87c.03-.11.1-.21.2-.27.07-.04.15-.06.22-.06.04,0,.07,0,.11.01,8.46,2.12,14.36,9.7,14.36,18.43,0,3.6-1.01,7.09-2.92,10.11-.08.13-.22.2-.37.2Zm-13.12-18.76l.33.11c3.53,1.23,5.9,4.58,5.9,8.33,0,1.41-.34,2.81-.99,4.05l-.16.31,7.9,4.92.2-.34c1.54-2.71,2.35-5.8,2.35-8.94,0-8.07-5.18-15.05-12.9-17.36l-.38-.11-2.25,9.03Z"/>
    </g>
    <rect class="cls-1" width="40" height="42"/>
  </g>
</svg>