<?xml version="1.0" encoding="UTF-8"?>
<svg id="Capa_2" data-name="Capa 2" xmlns="http://www.w3.org/2000/svg" viewBox="0 0 40 42">
  <defs>
    <style>
      .cls-1 {
        fill: none;
      }

      .cls-2 {
        fill: #0d0d0d;
        stroke: #0d0d0d;
        stroke-miterlimit: 10;
      }
    </style>
  </defs>
  <g id="Capa_1-2" data-name="Capa 1">
    <g>
      <path class="cls-2" d="m20.1,34.22c-.23,0-.43-.19-.43-.43v-10.29s-.98,0-.98,0c-.23,0-.43-.19-.43-.43s.19-.43.43-.43h1.41c.11,0,.22.04.3.12.08.08.13.19.12.3v10.72c0,.23-.2.43-.43.43Z"/>
      <path class="cls-2" d="m20,39.58c-6.45,0-11.7-5.25-11.7-11.7,0-1.63.33-3.21.99-4.7l.05-.11L3.57,9.23c-.14-.35-.14-.73,0-1.07.14-.35.41-.62.76-.76L15.98,2.53c.17-.07.35-.11.54-.11.57,0,1.08.34,1.3.86l2.19,5.24,2.19-5.24c.22-.52.73-.86,1.3-.86.18,0,.37.04.54.11l11.65,4.87c.35.14.61.41.76.76.14.35.14.73,0,1.07l-5.78,13.84.05.11c.66,1.49.99,3.07.99,4.71,0,6.45-5.25,11.7-11.7,11.7Zm0-22.54c-5.98,0-10.84,4.87-10.84,10.84s4.87,10.84,10.84,10.84,10.84-4.86,10.84-10.84-4.87-10.84-10.84-10.84ZM4.65,8.18c-.14.06-.24.16-.3.3-.06.14-.06.29,0,.42l5.5,13.17.29-.45c1.48-2.32,3.73-4.05,6.34-4.88l.14-.04.05-.14v-.02s2.89-6.89,2.89-6.89l-2.52-6.02c-.09-.21-.29-.34-.51-.34-.07,0-.14.01-.21.04l-5.73,2.39,3.85,8.44c.1.21,0,.47-.21.56-.06.03-.12.04-.18.04-.17,0-.32-.1-.39-.25l-3.86-8.46-5.14,2.15Zm15.35,8.01c4.01,0,7.7,2.03,9.86,5.42l.29.45,5.5-13.17c.06-.13.06-.28,0-.42-.06-.14-.16-.24-.3-.3l-5.14-2.15-3.86,8.46c-.07.15-.22.25-.39.25-.06,0-.12-.01-.18-.04-.21-.1-.31-.35-.21-.56l3.85-8.44-5.73-2.39c-.07-.03-.14-.04-.21-.04-.22,0-.42.13-.51.34l-2.56,6.14-.02.05-2.77,6.62.5-.08c.62-.1,1.25-.15,1.87-.15Z"/>
    </g>
    <rect class="cls-1" width="40" height="42"/>
  </g>
</svg>