<?xml version="1.0" encoding="UTF-8"?>
<svg id="Capa_2" data-name="Capa 2" xmlns="http://www.w3.org/2000/svg" viewBox="0 0 40 42">
  <defs>
    <style>
      .cls-1 {
        fill: none;
      }

      .cls-2 {
        fill: #0d0d0d;
        stroke: #0d0d0d;
        stroke-miterlimit: 10;
      }
    </style>
  </defs>
  <g id="Capa_1-2" data-name="Capa 1">
    <g>
      <path class="cls-2" d="m13.53,39.24c-2.77,0-5.03-2.32-5.03-5.17v-2.54c0-.24.2-.44.44-.44s.44.2.44.44v1.66h20.41V7.87H9.39v6.74c0,.24-.2.44-.44.44s-.44-.2-.44-.44v-6.69c0-.08,0-.17.01-.25v-.12s0-.04,0-.04c0-.03-.01-.07-.01-.09,0-.06.01-.12.04-.18l.02-.04v-.04c.37-2.52,2.5-4.42,4.98-4.42h12.12c2.47,0,4.61,1.9,4.97,4.42v.04s.02.04.02.04c.03.06.04.12.04.18,0,.03,0,.06-.01.09v.04s0,.12,0,.12c0,.08.01.17.01.25v26.14c0,2.85-2.26,5.17-5.03,5.17h-12.12Zm-4.13-4.86c.15,2.23,1.97,3.98,4.13,3.98h12.12c2.16,0,3.98-1.75,4.13-3.98l.02-.3H9.38l.02.3ZM13.53,3.65c-1.81,0-3.39,1.19-3.94,2.97l-.11.36h20.24l-.11-.36c-.55-1.78-2.14-2.97-3.94-2.97h-12.12Z"/>
      <path class="cls-2" d="m18.82,36.61c-.24,0-.44-.2-.44-.44s.2-.44.44-.44h2c.24,0,.44.2.44.44s-.2.44-.44.44h-2Z"/>
      <path class="cls-2" d="m11.85,29.03c-.24,0-.44-.2-.44-.44v-11.25c0-.24.2-.44.44-.44s.44.2.44.44v11.25c0,.24-.2.44-.44.44Z"/>
      <path class="cls-2" d="m27.33,29.03c-.24,0-.44-.2-.44-.44v-10.25c0-.24.2-.44.44-.44s.44.2.44.44v10.25c0,.24-.2.44-.44.44Z"/>
      <path class="cls-2" d="m22.29,29.03c-.24,0-.44-.2-.44-.44v-7.84c0-.24.2-.44.44-.44s.44.2.44.44v7.84c0,.24-.2.44-.44.44Z"/>
      <path class="cls-2" d="m2.73,29.03c-.24,0-.44-.2-.44-.44v-7.84c0-.24.2-.44.44-.44s.44.2.44.44v7.84c0,.24-.2.44-.44.44Z"/>
      <path class="cls-2" d="m37.27,29.03c-.24,0-.44-.2-.44-.44v-7.84c0-.24.2-.44.44-.44s.44.2.44.44v7.84c0,.24-.2.44-.44.44Z"/>
      <path class="cls-2" d="m33.22,29.03c-.24,0-.44-.2-.44-.44v-5.13c0-.24.2-.44.44-.44s.44.2.44.44v5.13c0,.24-.2.44-.44.44Z"/>
      <path class="cls-2" d="m6.87,29.03c-.24,0-.44-.2-.44-.44v-5.13c0-.24.2-.44.44-.44s.44.2.44.44v5.13c0,.24-.2.44-.44.44Z"/>
      <path class="cls-2" d="m17.25,29.03c-.24,0-.44-.2-.44-.44v-15.17c0-.24.2-.44.44-.44s.44.2.44.44v15.17c0,.24-.2.44-.44.44Z"/>
    </g>
    <rect class="cls-1" width="40" height="42"/>
  </g>
</svg>